# xmcd
#
# Track frame offsets:
#	150
#	14760
#	32397
#	48102
#	71890
#	95422
#	117017
#	132820
#	145262
#	160737
#
# Disc length: 2382 seconds
#
# Revision: 1
# Processed by: cddbd v1.5.2PL0 Copyright (c) Steve Scherf et al.
# Submitted via: CDex 1.50Beta5
#
DISCID=7f094c0a
DTITLE=さまざまなアーティスト - EUROBEAT FANTASY VOL.9
DYEAR=1989
DGENRE=Other
TTITLE0=DON'T YOU BREAK MY HEART
TTITLE1=MY LION
TTITLE2=SHOU ME
TTITLE3=MY SUNSHING
TTITLE4=1 BY 1
TTITLE5=WHO DO YOU THINK YOU ARE
TTITLE6=FEEL THE ACTION
TTITLE7=NEVER SAY GOOBYE
TTITLE8=DAY BY DAY
TTITLE9=LOVE IS SO STRONG
EXTD=
EXTT0=
EXTT1=
EXTT2=
EXTT3=
EXTT4=
EXTT5=
EXTT6=
EXTT7=
EXTT8=
EXTT9=
PLAYORDER=
